<svg xmlns="http://www.w3.org/2000/svg" viewBox="0 0 100 100" fill="none">
  <defs>
    <linearGradient id="fg" x1="0%" y1="0%" x2="100%" y2="100%">
      <stop offset="0%" stop-color="#06b6d4"/>
      <stop offset="50%" stop-color="#3b82f6"/>
      <stop offset="100%" stop-color="#06b6d4"/>
    </linearGradient>
    <linearGradient id="hg" x1="0%" y1="0%" x2="100%" y2="100%">
      <stop offset="0%" stop-color="#ef4444"/>
      <stop offset="100%" stop-color="#f97316"/>
    </linearGradient>
  </defs>
  <path d="M50 10 L80 25 L80 45 C80 65 70 80 50 90 C30 80 20 65 20 45 L20 25 Z" fill="url(#fg)" opacity="0.9"/>
  <path d="M50 10 L80 25 L80 45 C80 65 70 80 50 90 C30 80 20 65 20 45 L20 25 Z" stroke="#06b6d4" stroke-width="2" fill="none" opacity="0.5"/>
  <circle cx="50" cy="45" r="15" fill="#0a0a0a" opacity="0.7"/>
  <circle cx="50" cy="45" r="12" fill="#06b6d4" opacity="0.3"/>
  <circle cx="50" cy="45" r="8" fill="#06b6d4" opacity="0.6"/>
  <circle cx="50" cy="45" r="4" fill="#fff"/>
  <path d="M50 60 L50 70" stroke="url(#hg)" stroke-width="3" stroke-linecap="round"/>
  <path d="M50 70 C50 75 55 78 58 75 C61 72 60 68 57 68 C54 68 50 70 50 73" stroke="url(#hg)" stroke-width="3" stroke-linecap="round" fill="none"/>
</svg>
